<svg width="100" height="100" viewBox="0 0 100 100" fill="none" xmlns="http://www.w3.org/2000/svg">
<g clip-path="url(#clip0_386:155)">
<path d="M49.998 82.373H97.0684C98.6863 82.373 99.998 83.6848 99.998 85.3027V97.0703C99.998 98.6883 98.6863 100 97.0684 100H49.998C48.3801 100 47.0684 98.6883 47.0684 97.0703V85.3027C47.0684 83.6848 48.3799 82.373 49.998 82.373Z" fill="#053F7C"/>
<path d="M2.57917 75.7466L33.8087 44.5171L46.2727 56.9812L15.0434 88.2107C13.3253 89.9288 11.0682 90.788 8.8114 90.788C6.55457 90.788 4.29753 89.929 2.57937 88.2107C-0.857153 84.7743 -0.857153 79.1829 2.57917 75.7466Z" fill="#053F7C"/>
<path d="M33.7676 36.1982L54.5495 15.4163L75.366 36.2328L54.584 57.0147L33.7676 36.1982Z" fill="#053F7C"/>
<path d="M85.754 38.2851L89.9317 42.4628C91.0759 43.607 91.0759 45.4618 89.9317 46.606L64.9688 71.5689C64.3968 72.141 63.647 72.4271 62.8974 72.4271C62.1478 72.4271 61.3978 72.1411 60.8259 71.5689L56.6481 67.3911C55.504 66.247 55.504 64.3921 56.6481 63.248L81.6108 38.2853C82.755 37.1409 84.6099 37.1409 85.754 38.2851Z" fill="#053F7C"/>
<path d="M27.5423 34.1418C26.3981 35.286 24.5433 35.286 23.3991 34.1418L19.2214 29.9641C18.0772 28.8199 18.0772 26.9651 19.2214 25.8209L44.1841 0.858032C45.3278 -0.285913 47.1829 -0.286108 48.3273 0.858032L52.505 5.03577C53.6491 6.17991 53.6491 8.03479 52.505 9.17893L27.5423 34.1418Z" fill="#053F7C"/>
</g>
<defs>
<clipPath id="clip0_386:155">
<rect width="100" height="100" fill="white"/>
</clipPath>
</defs>
</svg>
