<svg width="22" height="20" viewBox="0 0 22 20" fill="none" xmlns="http://www.w3.org/2000/svg">
<path fill-rule="evenodd" clip-rule="evenodd" d="M10.7923 0.0887968C10.916 -0.0283668 11.1092 -0.0297521 11.2346 0.085627L14.7732 3.34345V1.79266C14.7732 1.61373 14.9183 1.46868 15.0972 1.46868H17.905C18.0839 1.46868 18.229 1.61373 18.229 1.79266V6.7517L21.8442 10.2198C21.9396 10.3113 21.9698 10.4517 21.9205 10.5744C21.8711 10.6971 21.7521 10.7775 21.6199 10.7775H18.229V19.676C18.229 19.855 18.0839 20 17.905 20H4.03889C3.85996 20 3.71491 19.855 3.71491 19.676V10.7775H0.323986C0.191359 10.7775 0.0721258 10.6967 0.0230283 10.5735C-0.0260693 10.4503 0.00488522 10.3096 0.101161 10.2184L10.7923 0.0887968ZM11.0183 0.767262L1.13696 10.1296H4.03889C4.21781 10.1296 4.36286 10.2746 4.36286 10.4536V19.3521H17.581V10.4536C17.581 10.2746 17.7261 10.1296 17.905 10.1296H20.8142L17.6807 7.12364C17.617 7.06254 17.581 6.97811 17.581 6.88985V2.11663H15.4212V4.08207C15.4212 4.21068 15.3451 4.32711 15.2273 4.37876C15.1096 4.43042 14.9724 4.40753 14.8778 4.32042L11.0183 0.767262Z" fill="black"/>
<path fill-rule="evenodd" clip-rule="evenodd" d="M10.9501 7.90503C8.50478 7.90503 6.52246 9.88735 6.52246 12.3327C6.52246 14.778 8.50478 16.7603 10.9501 16.7603C13.3954 16.7603 15.3778 14.778 15.3778 12.3327C15.3778 9.88735 13.3954 7.90503 10.9501 7.90503ZM5.87451 12.3327C5.87451 9.5295 8.14693 7.25708 10.9501 7.25708C13.7533 7.25708 16.0257 9.5295 16.0257 12.3327C16.0257 15.1358 13.7533 17.4083 10.9501 17.4083C8.14693 17.4083 5.87451 15.1358 5.87451 12.3327Z" fill="black"/>
<path fill-rule="evenodd" clip-rule="evenodd" d="M13.4341 12.3326C13.4341 12.4484 13.3723 12.5553 13.2721 12.6132L10.0324 14.4837C9.93212 14.5415 9.80862 14.5415 9.70838 14.4837C9.60814 14.4258 9.54639 14.3188 9.54639 14.2031L9.54639 10.4622C9.54639 10.3464 9.60814 10.2395 9.70838 10.1816C9.80862 10.1237 9.93212 10.1237 10.0324 10.1816L13.2721 12.0521C13.3723 12.1099 13.4341 12.2169 13.4341 12.3326ZM10.1943 11.0233L10.1943 13.6419L12.4622 12.3326L10.1943 11.0233Z" fill="black"/>
</svg>
