<svg width="15" height="20" viewBox="0 0 15 20" fill="none" xmlns="http://www.w3.org/2000/svg">
<path d="M1.01174 17.1711L1.01167 17.1711C0.687209 16.8943 0.5 16.4883 0.5 16.063C0.5 13.7688 2.35578 11.9296 4.65717 11.9296H10.0046C12.3055 11.9296 14.1544 13.7677 14.1544 16.063C14.1544 16.4894 13.9681 16.8939 13.6436 17.1702L13.6431 17.1707C11.942 18.6233 9.73634 19.5 7.32721 19.5C4.91874 19.5 2.71364 18.6234 1.01174 17.1711ZM7.33026 0.5C9.59295 0.5 11.4264 2.33406 11.4264 4.59553C11.4264 6.85756 9.59299 8.69105 7.33026 8.69105C5.06884 8.69105 3.23535 6.85765 3.23535 4.59553C3.23535 2.33397 5.06888 0.5 7.33026 0.5Z" stroke="black"/>
</svg>
