<svg width="15" height="20" viewBox="0 0 15 20" fill="none" xmlns="http://www.w3.org/2000/svg">
<path d="M7.33026 0C9.86909 0 11.9264 2.05792 11.9264 4.59553C11.9264 7.13375 9.86909 9.19105 7.33026 9.19105C4.79265 9.19105 2.73535 7.13375 2.73535 4.59553C2.73535 2.05792 4.79265 0 7.33026 0ZM7.32721 20C4.79509 20 2.47597 19.0778 0.687193 17.5515C0.251441 17.1798 0 16.6348 0 16.063C0 13.4894 2.08294 11.4296 4.65717 11.4296H10.0046C12.5794 11.4296 14.6544 13.4894 14.6544 16.063C14.6544 16.6354 14.4042 17.1792 13.9678 17.5509C12.1797 19.0778 9.85994 20 7.32721 20Z" fill="black"/>
</svg>
