<?xml version="1.0" encoding="utf-8"?>
<!-- Generator: Adobe Illustrator 23.0.5, SVG Export Plug-In . SVG Version: 6.00 Build 0)  -->
<svg version="1.1" xmlns="http://www.w3.org/2000/svg" xmlns:xlink="http://www.w3.org/1999/xlink" x="0px" y="0px"
	 viewBox="0 0 1080 1080" style="enable-background:new 0 0 1080 1080;" xml:space="preserve">
<style type="text/css">
	.st0{display:none;}
	.st1{fill:none;stroke:#000000;stroke-width:2;stroke-miterlimit:10;}
	.st2{display:inline;}
</style>
<g id="Layer_1" class="st0">
	
		<image style="display:inline;overflow:visible;opacity:7.000000e-02;" width="320" height="326" xlink:href="../logo.PNG"  transform="matrix(2.5136 0 0 2.5136 184.2195 105.2459)">
	</image>
</g>
<g id="Layer_2">
	<g>
		<g>
			<g id="XMLID_2_">
				<g>
				</g>
				<g>
					<polygon class="st1" points="349.7,417 349.7,286.2 349.8,286 521.8,113.8 522.1,114.2 695.4,285.4 695.4,417 694.5,416.2 
						521.8,245.7 					"/>
					<polygon class="st1" points="521.8,244.3 522.1,244.7 694.4,414.6 694.4,285.8 521.8,115.2 350.7,286.6 350.7,414.6 					"/>
					<polygon class="st1" points="349.7,676.7 349.7,545.8 349.8,545.7 521.8,373.5 522.1,373.8 695.4,545.1 695.4,676.7 
						694.5,675.8 521.8,505.4 					"/>
					<polygon class="st1" points="521.8,504 522.1,504.3 694.4,674.3 694.4,545.5 521.8,374.9 350.7,546.2 350.7,674.3 					"/>
					<polygon class="st1" points="349.7,936.3 349.7,805.5 349.8,805.3 521.8,633.1 522.1,633.5 695.4,804.7 695.4,936.3 
						694.5,935.5 521.8,765 					"/>
					<polygon class="st1" points="521.8,763.6 522.1,764 694.4,933.9 694.4,805.1 521.8,634.6 350.7,805.9 350.7,933.9 					"/>
				</g>
			</g>
		</g>
	</g>
</g>
<g id="Layer_3" class="st0">
	<g class="st2">
		<g>
			<g id="XMLID_3_">
				<g>
					<path d="M698.4,794.2v131.6l-0.8-0.8L524.8,754.5L352.7,925.8V795l0.1-0.2l171.9-172.2l0.4,0.4L698.4,794.2z M697.4,923.4
						V794.6L524.8,624L353.7,795.4v128l171.1-170.3l0.4,0.3L697.4,923.4z"/>
					<path d="M698.4,534.5v131.6l-0.8-0.8L524.8,494.9L352.7,666.2V535.3l0.1-0.1L524.8,363l0.4,0.4L698.4,534.5z M697.4,663.8V535
						L524.8,364.4L353.7,535.7v128l171.1-170.3l0.4,0.4L697.4,663.8z"/>
					<path d="M698.4,274.9v131.6l-0.8-0.8L524.8,235.2L352.7,406.5V275.7l0.1-0.1l171.9-172.2l0.4,0.4L698.4,274.9z M697.4,404.1
						V275.3L524.8,104.7L353.7,276.1v128l171.1-170.3l0.4,0.4L697.4,404.1z"/>
					<polygon points="697.4,794.6 697.4,923.4 525.1,753.5 524.8,753.1 353.7,923.4 353.7,795.4 524.8,624 					"/>
					<polygon points="697.4,535 697.4,663.8 525.1,493.8 524.8,493.4 353.7,663.8 353.7,535.7 524.8,364.4 					"/>
					<polygon points="697.4,275.3 697.4,404.1 525.1,234.1 524.8,233.8 353.7,404.1 353.7,276.1 524.8,104.7 					"/>
				</g>
				<g>
				</g>
			</g>
		</g>
	</g>
</g>
</svg>
